<svg role="img" viewBox="0 0 24 24" xmlns="http://www.w3.org/2000/svg"><title>Xbox</title><path d="M10.805 23.951c-1.852-.176-3.723-.842-5.329-1.891-1.348-.877-1.653-1.237-1.653-1.961 0-1.444 1.594-3.981 4.318-6.874 1.547-1.64 3.703-3.566 3.937-3.51.453.1 4.078 3.632 5.435 5.295 2.144 2.63 3.129 4.783 2.629 5.742-.38.729-2.743 2.154-4.48 2.702-1.43.454-3.311.645-4.857.497m-8.802-5.355C.882 16.877.319 15.19.046 12.744c-.09-.807-.06-1.268.203-2.925.328-2.066 1.504-4.454 2.918-5.922.602-.626.656-.641 1.39-.395.891.3 1.844.955 3.318 2.29l.863.779-.468.579c-2.185 2.677-4.49 6.478-5.36 8.828-.474 1.28-.661 2.564-.458 3.097.137.36.012.226-.45-.478m19.654.293c.11-.54-.027-1.53-.355-2.532-.711-2.164-3.086-6.193-5.267-8.929l-.683-.861.742-.682c.969-.888 1.64-1.424 2.368-1.874.574-.356 1.39-.674 1.742-.674.219 0 .98.792 1.598 1.656.957 1.34 1.66 2.964 2.015 4.654.23 1.092.247 3.43.036 4.518a14.301 14.33 0 0 1-.899 2.837c-.27.592-.937 1.734-1.23 2.107-.153.191-.153.191-.067-.22M11 2.93c-1.004-.512-2.555-1.06-3.414-1.205a6 6.013 0 0 0-1.138-.067c-.707.035-.676 0 .457-.536C7.852.675 8.635.417 9.703.19c1.203-.25 3.461-.254 4.64-.004 1.278.267 2.783.826 3.63 1.347l.25.156-.574-.027c-1.149-.059-2.825.403-4.618 1.276-.543.267-1.015.474-1.047.47"/></svg>